<?xml version="1.0" standalone="no"?><!DOCTYPE svg PUBLIC "-//W3C//DTD SVG 1.1//EN" "http://www.w3.org/Graphics/SVG/1.1/DTD/svg11.dtd"><svg class="icon" width="200px" height="200.00px" viewBox="0 0 1024 1024" version="1.1" xmlns="http://www.w3.org/2000/svg"><path fill="#d81e06" d="M648.651798 751.258199l-82.022085-111.683638c-11.789511-16.08842-36.377512-21.446451-54.603619-11.900028l-76.580143 39.996946c-33.920554 19.61678-91.459015-58.624189-112.556519-97.91096-30.780027-57.253982-50.919716-137.493467-23.812335-153.315828l79.941704-42.026162c18.175965-9.572006 26.590612-32.136931 18.640546-50.163493l-55.121412-125.244492c-7.936763-18.039865-30.766724-28.083615-50.751894-22.319331l-133.161812 38.381146c-19.932981 5.759167-32.834826 34.495652-30.197766 56.277748 0 0-7.329942 144.965649 100.689237 338.148463 107.980293 193.20942 241.052055 275.089265 241.052055 275.089265 20.735253 14.944364 59.956533 14.084787 70.427002 2.798742l101.07707-83.380012C657.36525 791.087323 660.467915 767.345596 648.651798 751.258199L648.651798 751.258199 648.651798 751.258199zM493.797941 523.779278l55.237045 0c15.21554 0.750083 23.216771 7.109931 24.00574 19.047822-0.788969 12.727882-7.988951 19.074428-21.627577 19.074428l-103.261828 0c-15.22782 0-22.829961-6.333242-22.829961-19.074428-0.814552-3.709485 1.202385-8.56405 6.024204-14.549368 6.373151-6.747681 12.797467-13.456477 19.183921-20.166295 26.436092-26.151613 45.671179-47.842635 57.681724-65.016783 7.213285-8.996908 10.793834-17.949814 10.793834-26.939559-1.602498-13.44522-8.815783-20.896936-21.614274-22.3838-12.824073 0-21.988804 8.55791-27.625174 25.76378-4.796236 14.20042-11.621688 20.941961-20.424168 20.166295-15.22782 0-22.816658-6.722098-22.816658-20.166295 3.981684-38.135552 28.013007-59.748802 72.094992-65.010643 43.215244 2.99931 66.045205 22.777773 68.462255 59.393715 0 20.915355-18.033725 50.428529-54.061266 88.531336C503.390413 512.945535 496.977353 520.068769 493.797941 523.779278L493.797941 523.779278 493.797941 523.779278zM687.17416 517.057179l-74.459852 0c-13.638625 0-20.85191-5.623068-21.614274-16.83134-0.814552-4.485151 0.762363-8.965186 4.756327-13.444197l68.500117-115.464755c5.571902-11.19497 16.004509-16.792455 31.232328-16.792455 23.242354 1.512447 35.239596 13.444197 36.040844 35.834136l0 88.550779 4.808516 0c12.798491 1.518586 20.011776 7.852852 21.639856 19.080567-1.654686 11.957333-8.842389 18.317181-21.639856 19.054985l-4.808516 0 0 24.658609c0 13.45136-7.601118 20.166295-22.803355 20.166295-15.228843 0-22.454408-6.715959-21.627577-20.166295l0-24.645306L687.17416 517.058203 687.17416 517.057179zM687.17416 478.92879l0-79.573313-1.202385 0-40.836057 79.573313L687.17416 478.92879 687.17416 478.92879 687.17416 478.92879zM429.381839 211.744565c39.983643-20.522406 85.927021-32.124651 134.738727-32.014134 153.588027 0.432859 277.365098 116.971062 276.524964 260.236999-0.607844 99.804077-61.467957 186.260148-150.19986 229.410923 0 0-23.333428 16.715707-10.807137 35.013445 13.301957 22.319331 36.737716 10.432607 36.737716 10.432607 106.105596-51.819203 178.808432-155.262156 179.531909-274.689153 1.046842-171.769109-147.369396-311.472917-331.47753-311.970244-58.275241-0.168846-113.189945 13.664208-160.981415 38.063921 0 0-26.539446 14.400988-11.621688 36.08587C406.695141 224.0181 429.381839 211.744565 429.381839 211.744565L429.381839 211.744565 429.381839 211.744565zM429.381839 211.744565" /></svg>