<?xml version="1.0" standalone="no"?><!DOCTYPE svg PUBLIC "-//W3C//DTD SVG 1.1//EN" "http://www.w3.org/Graphics/SVG/1.1/DTD/svg11.dtd"><svg class="icon" width="200px" height="200.00px" viewBox="0 0 1024 1024" version="1.1" xmlns="http://www.w3.org/2000/svg"><path fill="#d81e06" d="M870.4 520.533333v-46.933333c0-93.866667-38.4-183.466667-106.666667-251.733333S605.866667 115.2 512 115.2c-196.266667 0-358.4 162.133333-358.4 358.4v64c0 64 51.2 110.933333 110.933333 110.933333s110.933333-51.2 110.933334-110.933333v-42.666667C379.733333 435.2 328.533333 384 268.8 384c-17.066667 0-34.133333 4.266667-46.933333 12.8C256 268.8 371.2 170.666667 512 170.666667c81.066667 0 157.866667 29.866667 213.333333 89.6 38.4 38.4 64 85.333333 76.8 132.266666-12.8-4.266667-29.866667-8.533333-46.933333-8.533333-64 0-115.2 51.2-115.2 110.933333v42.666667c0 64 51.2 110.933333 115.2 110.933333 8.533333 0 17.066667 0 29.866667-4.266666-12.8 29.866667-34.133333 59.733333-59.733334 81.066666-51.2 51.2-115.2 81.066667-183.466666 85.333334-4.266667-8.533333-4.266667-12.8-12.8-21.333334l-8.533334-8.533333c-17.066667-17.066667-46.933333-17.066667-68.266666 0-4.266667 4.266667-8.533333 8.533333-8.533334 12.8-4.266667 12.8-4.266667 25.6 0 34.133333 4.266667 4.266667 4.266667 12.8 8.533334 17.066667l4.266666 4.266667 8.533334 8.533333c4.266667 4.266667 8.533333 8.533333 17.066666 8.533333 12.8 4.266667 25.6 4.266667 38.4 0 93.866667 0 183.466667-38.4 251.733334-102.4 55.466667-55.466667 89.6-128 102.4-204.8 0-8.533333 4.266667-17.066667 4.266666-25.6v-12.8h-8.533333zM268.8 439.466667c29.866667 0 59.733333 25.6 59.733333 59.733333v42.666667c-4.266667 29.866667-29.866667 55.466667-59.733333 55.466666s-59.733333-25.6-59.733333-55.466666v-46.933334c0-29.866667 25.6-55.466667 59.733333-55.466666z m546.133333 64v42.666666c-4.266667 29.866667-29.866667 51.2-59.733333 51.2s-55.466667-25.6-55.466667-55.466666v-42.666667c0-29.866667 25.6-59.733333 55.466667-59.733333s55.466667 25.6 55.466667 59.733333v4.266667z"  /></svg>